HIERARCHY
ROOT Hips
{
 OFFSET 0.000000 0.000000 0.000000
 CHANNELS 6 Xposition Yposition Zposition Yrotation Xrotation Zrotation
 JOINT Chest
 {
  OFFSET 0.000000 10.354800 0.006500
  CHANNELS 3 Yrotation Xrotation Zrotation
  JOINT Chest2
  {
   OFFSET 0.000000 10.435800 -0.013200
   CHANNELS 3 Yrotation Xrotation Zrotation
   JOINT Chest3
   {
    OFFSET 0.000000 10.393700 0.000000
    CHANNELS 3 Yrotation Xrotation Zrotation
    JOINT Chest4
    {
     OFFSET 0.000000 10.383100 0.000000
     CHANNELS 3 Yrotation Xrotation Zrotation
     JOINT Neck
     {
      OFFSET 0.000000 15.694000 0.000000
      CHANNELS 3 Yrotation Xrotation Zrotation
      JOINT Head
      {
       OFFSET 0.000000 9.711000 -0.028000
       CHANNELS 3 Yrotation Xrotation Zrotation
       End Site
       {
        OFFSET 0.000000 18.578700 -0.014800
       }
      }
     }
     JOINT RightCollar
     {
      OFFSET -3.157200 10.367500 0.000000
      CHANNELS 3 Yrotation Xrotation Zrotation
      JOINT RightShoulder
      {
       OFFSET -14.482500 0.000000 0.000000
       CHANNELS 3 Yrotation Xrotation Zrotation
       JOINT RightElbow
       {
        OFFSET 0.000000 -31.707800 0.000000
        CHANNELS 3 Yrotation Xrotation Zrotation
        JOINT RightWrist
        {
         OFFSET 0.000000 -25.659300 0.000000
         CHANNELS 3 Yrotation Xrotation Zrotation
         End Site
         {
          OFFSET 0.000000 -18.994300 0.000000
         }
        }
       }
      }
     }
     JOINT LeftCollar
     {
      OFFSET 3.157200 10.367500 0.000000
      CHANNELS 3 Yrotation Xrotation Zrotation
      JOINT LeftShoulder
      {
       OFFSET 14.482500 0.000000 0.000000
       CHANNELS 3 Yrotation Xrotation Zrotation
       JOINT LeftElbow
       {
        OFFSET 0.000000 -31.707800 0.000000
        CHANNELS 3 Yrotation Xrotation Zrotation
        JOINT LeftWrist
        {
         OFFSET 0.000000 -25.659300 0.000000
         CHANNELS 3 Yrotation Xrotation Zrotation
         End Site
         {
          OFFSET 0.000000 -18.994300 0.000000
         }
        }
       }
      }
     }
    }
   }
  }
 }
 JOINT RightHip
 {
  OFFSET -8.365600 -0.032100 -0.003200
  CHANNELS 3 Yrotation Xrotation Zrotation
  JOINT RightKnee
  {
   OFFSET 0.000000 -43.980000 0.003100
   CHANNELS 3 Yrotation Xrotation Zrotation
   JOINT RightAnkle
   {
    OFFSET 0.000000 -42.882800 0.005200
    CHANNELS 3 Yrotation Xrotation Zrotation
    JOINT RightToe
    {
     OFFSET 0.000000 -4.915500 10.826300
     CHANNELS 3 Yrotation Xrotation Zrotation
     End Site
     {
      OFFSET 0.000000 -1.517500 6.175900
     }
    }
   }
  }
 }
 JOINT LeftHip
 {
  OFFSET 8.365600 -0.032100 -0.003200
  CHANNELS 3 Yrotation Xrotation Zrotation
  JOINT LeftKnee
  {
   OFFSET 0.000000 -43.980000 0.003100
   CHANNELS 3 Yrotation Xrotation Zrotation
   JOINT LeftAnkle
   {
    OFFSET 0.000000 -42.882800 0.005200
    CHANNELS 3 Yrotation Xrotation Zrotation
    JOINT LeftToe
    {
     OFFSET 0.000000 -4.915500 10.826300
     CHANNELS 3 Yrotation Xrotation Zrotation
     End Site
     {
      OFFSET 0.000000 -1.517500 6.175900
     }
    }
   }
  }
 }
}
MOTION
Frames: 5
Frame Time: 0.008333
0.000000 91.618600 0.000000 0.000000 -5.767877 0.000000 0.000000 11.653817 0.000000 0.000000 -5.885947 0.000000 0.000000 -0.000000 0.000000 0.000000 -0.000000 0.000000 0.000000 12.528835 0.000000 0.000000 0.711642 0.000000 0.000000 -0.000000 0.000000 0.000000 0.000000 -90.000000 0.000000 -2.309062 0.000000 0.000000 2.309062 0.000000 0.000000 -0.000000 0.000000 0.000000 -0.000000 90.000000 0.000000 -2.309062 0.000000 0.000000 2.309062 0.000000 0.000000 8.520406 0.000000 0.000000 1.905762 0.000000 -0.000000 -4.658285 0.000000 0.000000 -0.000000 0.000000 0.000000 8.520406 0.000000 0.000000 1.905762 0.000000 -0.000000 -4.658285 0.000000 0.000000 -0.000000 0.000000
-13.260231 147.391845 29.286159 177.510516 -21.108002 -3.327202 -2.036577 12.201282 3.076381 -0.184611 0.941247 0.260318 -0.304765 1.605375 0.435240 -1.883813 11.083252 2.870504 -3.656911 18.885707 0.780017 -4.073847 -5.708877 1.669527 2.438804 4.185844 -4.496721 13.064015 -8.529535 -6.931604 44.231166 -47.751417 -30.765263 -10.905669 -20.194964 -32.387420 -1.768025 6.565786 0.887782 -7.344800 -12.371370 -1.544898 -42.156515 -48.868307 29.486512 2.005242 -14.889448 37.214028 6.298071 -56.283212 -1.946234 -150.606292 77.437436 -143.542680 -0.326766 -23.930795 0.818822 0.003927 -0.058079 0.002628 -13.927617 -55.652986 8.085382 142.459852 75.532761 139.819262 -1.076167 -24.651646 -2.082436 0.014065 0.043795 0.006634
-10.751823 140.799489 29.893911 177.518937 -21.108183 -3.365376 -2.040105 12.203133 3.114338 -0.183928 0.940249 0.259249 -0.304315 1.605678 0.435916 -1.881322 11.080815 2.871488 -3.660671 18.884142 0.778762 -4.075730 -5.705788 1.665915 2.439010 4.191607 -4.501317 13.061297 -8.531879 -6.934210 44.237213 -47.754953 -30.761688 -10.899498 -20.195163 -32.386288 -1.768968 6.568708 0.885775 -7.348888 -12.373032 -1.545873 -42.152552 -48.863726 29.483364 2.009472 -14.896831 37.211241 6.232790 -56.293942 -1.878737 -150.634635 77.430561 -143.571374 -0.324701 -23.964441 0.814983 0.001089 -0.024541 0.000494 -13.988257 -55.638176 8.147162 142.450482 75.536861 139.808676 -1.062802 -24.624412 -2.084628 0.004307 0.017268 0.001956
-8.689544 135.370163 30.394487 177.517118 -21.106630 -3.374124 -2.041552 12.199484 3.126009 -0.181221 0.940636 0.257988 -0.305641 1.603713 0.436846 -1.879259 11.078701 2.872924 -3.663507 18.885441 0.776145 -4.082834 -5.706811 1.664903 2.439948 4.199172 -4.505926 13.060674 -8.533142 -6.936335 44.240134 -47.760175 -30.761629 -10.899930 -20.189259 -32.383599 -1.767595 6.572051 0.886815 -7.349246 -12.375356 -1.551477 -42.150804 -48.858922 29.479122 2.000892 -14.896459 37.208614 6.219482 -56.301889 -1.860883 -150.646798 77.425816 -143.582719 -0.324850 -23.972543 0.811268 0.001349 -0.016757 0.000612 -14.004598 -55.631716 8.166803 142.441402 75.540987 139.797129 -1.069335 -24.620334 -2.081392 0.002011 0.010889 0.000913
-7.200519 131.448671 30.756772 177.520573 -21.100109 -3.379712 -2.044146 12.192361 3.133439 -0.181481 0.939915 0.258058 -0.306094 1.602622 0.436973 -1.880206 11.077494 2.872358 -3.664714 18.886499 0.774616 -4.084532 -5.705551 1.664357 2.440696 4.203108 -4.508249 13.061293 -8.533520 -6.937988 44.232765 -47.761459 -30.752351 -10.901314 -20.188744 -32.384035 -1.765144 6.576521 0.889959 -7.348049 -12.381090 -1.551452 -42.144879 -48.859164 29.468242 2.000755 -14.895753 37.207380 6.212371 -56.311594 -1.858012 -150.661761 77.424459 -143.595079 -0.324742 -23.979152 0.806260 0.000568 -0.010673 0.000258 -14.028084 -55.631928 8.184038 142.438287 75.547035 139.785916 -1.061378 -24.614463 -2.080686 0.000092 0.007462 0.000042
